<svg width="72" height="72" fill="none" xmlns="http://www.w3.org/2000/svg"><g id="2"><path id="path724" fill-rule="evenodd" clip-rule="evenodd" d="M26.667 49.333c0-12.498 10.168-22.666 22.666-22.666C61.832 26.667 72 36.834 72 49.333S61.832 72 49.333 72c-12.498 0-22.666-10.168-22.666-22.667zm10.666 0c0 6.616 5.384 12 12 12 6.618 0 12-5.384 12-12 0-6.617-5.382-12-12-12-6.616 0-12 5.383-12 12z" fill="#2D415E"/><path id="path726" d="M24.667 35.333C18.787 35.333 14 30.546 14 24.666h-2.667C11.333 32.02 17.314 38 24.667 38v-2.667zM14 24.666C14 18.786 18.787 14 24.667 14v-2.667c-7.353 0-13.334 5.98-13.334 13.333H14zM24.667 14c5.88 0 10.666 4.785 10.666 10.666H38c0-7.354-5.98-13.333-13.333-13.333V14zm10.666 10.666c0 5.88-4.785 10.667-10.666 10.667V38C32.02 38 38 32.019 38 24.666h-2.667zm-10.666-24c-13.235 0-24 10.765-24 24h2.666c0-11.762 9.571-21.333 21.334-21.333V.667zm-24 24c0 13.235 10.765 24 24 24V46C12.904 46 3.333 36.429 3.333 24.666H.667zm24 24c13.235 0 24-10.765 24-24H46C46 36.43 36.429 46 24.667 46v2.666zm24-24c0-13.235-10.765-24-24-24v2.667C36.429 3.333 46 12.904 46 24.666h2.667z" fill="#FFCC2A"/></g></svg>