<svg width="128" height="151" fill="none" xmlns="http://www.w3.org/2000/svg"><g id="4"><path id="path308" fill-rule="evenodd" clip-rule="evenodd" d="M59.248 32.671L2.672 89.248a2.292 2.292 0 000 3.243l56.576 56.577a2.294 2.294 0 003.244 0l56.576-56.577a2.292 2.292 0 000-3.243L62.492 32.671a2.296 2.296 0 00-3.244 0z" stroke="#FFCC2A" stroke-width="2.361"/><path id="path310" d="M68.821.388a1.325 1.325 0 10-1.873 1.873A1.325 1.325 0 0068.821.388z" fill="#2D415E"/><path id="path312" d="M83.495 15.062a1.322 1.322 0 00-1.874 0 1.323 1.323 0 101.874 1.872 1.323 1.323 0 000-1.872z" fill="#2D415E"/><path id="path314" d="M98.168 29.733a1.325 1.325 0 10-1.873 1.874 1.325 1.325 0 001.873-1.874z" fill="#2D415E"/><path id="path316" d="M112.84 44.407a1.325 1.325 0 100 1.873 1.325 1.325 0 000-1.873z" fill="#2D415E"/><path id="path318" d="M127.513 59.08a1.324 1.324 0 10-1.873 1.873 1.324 1.324 0 001.873-1.873z" fill="#2D415E"/><path id="path320" d="M55.71 13.5a1.325 1.325 0 10-1.874 1.873 1.325 1.325 0 001.873-1.873z" fill="#2D415E"/><path id="path322" d="M70.383 28.173a1.325 1.325 0 10-1.874 1.874 1.325 1.325 0 001.874-1.874z" fill="#2D415E"/><path id="path324" d="M85.055 42.845a1.323 1.323 0 10-1.872 1.874 1.323 1.323 0 101.872-1.874z" fill="#2D415E"/><path id="path326" d="M99.728 57.519a1.324 1.324 0 10-1.873 1.872 1.324 1.324 0 001.873-1.872z" fill="#2D415E"/><path id="path328" d="M114.401 72.192a1.324 1.324 0 10-1.873 1.873 1.324 1.324 0 001.873-1.873z" fill="#2D415E"/><path id="path330" d="M42.597 26.612a1.325 1.325 0 10-1.873 1.873 1.325 1.325 0 001.873-1.873z" fill="#2D415E"/><path id="path332" d="M57.27 41.285a1.325 1.325 0 10-1.873 1.874 1.325 1.325 0 001.874-1.874z" fill="#2D415E"/><path id="path334" d="M71.943 55.957a1.323 1.323 0 10-1.872 1.874 1.323 1.323 0 101.872-1.874z" fill="#2D415E"/><path id="path336" d="M86.616 70.63a1.324 1.324 0 10-1.873 1.873 1.324 1.324 0 001.873-1.872z" fill="#2D415E"/><path id="path338" d="M101.289 85.304a1.324 1.324 0 10-1.873 1.873 1.324 1.324 0 001.873-1.873z" fill="#2D415E"/><path id="path340" d="M29.485 39.724a1.325 1.325 0 10-1.873 1.873 1.325 1.325 0 001.873-1.873z" fill="#2D415E"/><path id="path342" d="M44.159 54.397a1.325 1.325 0 10-1.874 1.874 1.325 1.325 0 001.874-1.874z" fill="#2D415E"/><path id="path344" d="M58.83 69.07a1.323 1.323 0 10-1.871 1.87 1.323 1.323 0 001.872-1.87z" fill="#2D415E"/><path id="path346" d="M73.504 83.743a1.324 1.324 0 10-1.873 1.872 1.324 1.324 0 001.873-1.872z" fill="#2D415E"/><path id="path348" d="M88.177 98.416a1.325 1.325 0 10-1.873 1.873 1.325 1.325 0 001.873-1.873z" fill="#2D415E"/><path id="path350" d="M16.373 52.836a1.325 1.325 0 10-1.873 1.873 1.325 1.325 0 001.873-1.873z" fill="#2D415E"/><path id="path352" d="M31.047 67.51a1.325 1.325 0 10-1.874 1.873 1.325 1.325 0 001.874-1.874z" fill="#2D415E"/><path id="path354" d="M45.719 82.181a1.323 1.323 0 10-1.872 1.87 1.323 1.323 0 001.872-1.87z" fill="#2D415E"/><path id="path356" d="M60.392 96.855a1.324 1.324 0 10-1.873 1.872 1.324 1.324 0 001.873-1.872z" fill="#2D415E"/><path id="path358" d="M75.065 111.528a1.325 1.325 0 10-1.873 1.875 1.325 1.325 0 001.873-1.875z" fill="#2D415E"/><path id="path360" d="M3.261 65.948a1.325 1.325 0 10-1.873 1.873 1.325 1.325 0 001.873-1.873z" fill="#2D415E"/><path id="path362" d="M17.935 80.621a1.325 1.325 0 10-1.874 1.874 1.325 1.325 0 001.874-1.874z" fill="#2D415E"/><path id="path364" d="M32.607 95.293a1.325 1.325 0 10-1.874 1.874 1.325 1.325 0 001.874-1.874z" fill="#2D415E"/><path id="path366" d="M47.28 109.967a1.323 1.323 0 10-1.873 1.87 1.323 1.323 0 001.873-1.87z" fill="#2D415E"/><path id="path368" d="M61.953 124.64a1.325 1.325 0 10-1.873 1.875 1.325 1.325 0 001.873-1.875z" fill="#2D415E"/></g></svg>