<svg width="99" height="101" fill="none" xmlns="http://www.w3.org/2000/svg"><g id="5"><path id="path370" fill-rule="evenodd" clip-rule="evenodd" d="M3.961 99.58h68.423a1.961 1.961 0 001.961-1.962V29.197a1.96 1.96 0 00-1.961-1.962H3.961A1.96 1.96 0 002 29.196v68.422c0 1.083.877 1.962 1.961 1.962z" stroke="#FFCC2A" stroke-width="2.667"/><path id="path372" d="M96.573 1.132a1.133 1.133 0 102.265.001 1.133 1.133 0 00-2.265-.001z" fill="#2D415E"/><path id="path374" d="M78.828 1.132a1.133 1.133 0 102.265.001 1.133 1.133 0 00-2.265-.001z" fill="#2D415E"/><path id="path376" d="M61.083 1.132a1.133 1.133 0 102.266 0 1.133 1.133 0 00-2.266 0z" fill="#2D415E"/><path id="path378" d="M43.337 1.132a1.133 1.133 0 102.266 0 1.133 1.133 0 00-2.266 0z" fill="#2D415E"/><path id="path380" d="M25.592 1.132a1.133 1.133 0 102.266 0 1.133 1.133 0 00-2.266 0z" fill="#2D415E"/><path id="path382" d="M96.573 16.99a1.133 1.133 0 102.267 0 1.133 1.133 0 00-2.267 0z" fill="#2D415E"/><path id="path384" d="M78.828 16.99a1.133 1.133 0 102.266 0 1.133 1.133 0 00-2.266 0z" fill="#2D415E"/><path id="path386" d="M61.083 16.99a1.132 1.132 0 102.264 0 1.132 1.132 0 00-2.264 0z" fill="#2D415E"/><path id="path388" d="M43.337 16.99a1.132 1.132 0 102.265.002 1.132 1.132 0 00-2.265-.003z" fill="#2D415E"/><path id="path390" d="M25.592 16.99a1.132 1.132 0 102.264.002 1.132 1.132 0 00-2.264-.003z" fill="#2D415E"/><path id="path392" d="M96.573 32.848a1.133 1.133 0 102.266-.002 1.133 1.133 0 00-2.266.002z" fill="#2D415E"/><path id="path394" d="M78.828 32.848a1.133 1.133 0 102.266-.002 1.133 1.133 0 00-2.266.002z" fill="#2D415E"/><path id="path396" d="M61.083 32.848a1.132 1.132 0 102.264 0 1.132 1.132 0 00-2.264 0z" fill="#2D415E"/><path id="path398" d="M43.337 32.848a1.132 1.132 0 102.264 0 1.132 1.132 0 00-2.264 0z" fill="#2D415E"/><path id="path400" d="M25.592 32.848a1.132 1.132 0 102.264 0 1.132 1.132 0 00-2.264 0z" fill="#2D415E"/><path id="path402" d="M96.573 48.705a1.133 1.133 0 102.266-.002 1.133 1.133 0 00-2.266.002z" fill="#2D415E"/><path id="path404" d="M78.828 48.705a1.133 1.133 0 102.266-.002 1.133 1.133 0 00-2.266.002z" fill="#2D415E"/><path id="path406" d="M61.083 48.705a1.132 1.132 0 102.264 0 1.132 1.132 0 00-2.264 0z" fill="#2D415E"/><path id="path408" d="M43.337 48.705a1.132 1.132 0 102.264 0 1.132 1.132 0 00-2.264 0z" fill="#2D415E"/><path id="path410" d="M25.592 48.705a1.132 1.132 0 102.264 0 1.132 1.132 0 00-2.264 0z" fill="#2D415E"/><path id="path412" d="M96.573 64.563a1.133 1.133 0 102.265 0 1.133 1.133 0 00-2.265 0z" fill="#2D415E"/><path id="path414" d="M78.828 64.563a1.133 1.133 0 102.265.001 1.133 1.133 0 00-2.265-.001z" fill="#2D415E"/><path id="path416" d="M61.083 64.563a1.133 1.133 0 102.266 0 1.133 1.133 0 00-2.266 0z" fill="#2D415E"/><path id="path418" d="M43.337 64.563a1.133 1.133 0 102.266 0 1.133 1.133 0 00-2.266 0z" fill="#2D415E"/><path id="path420" d="M25.592 64.563a1.133 1.133 0 102.266 0 1.133 1.133 0 00-2.266 0z" fill="#2D415E"/><path id="path422" d="M96.573 80.421a1.133 1.133 0 102.266-.002 1.133 1.133 0 00-2.266.002z" fill="#2D415E"/><path id="path424" d="M78.828 80.421a1.133 1.133 0 102.266-.002 1.133 1.133 0 00-2.266.002z" fill="#2D415E"/><path id="path426" d="M61.083 80.421a1.132 1.132 0 102.264 0 1.132 1.132 0 00-2.264 0z" fill="#2D415E"/><path id="path428" d="M43.337 80.421a1.132 1.132 0 102.264 0 1.132 1.132 0 00-2.264 0z" fill="#2D415E"/><path id="path430" d="M25.592 80.421a1.132 1.132 0 102.264 0 1.132 1.132 0 00-2.264 0z" fill="#2D415E"/></g></svg>