<svg width="12" height="9" fill="none" xmlns="http://www.w3.org/2000/svg"><path d="M.239.66c1.7 1.014 4.502 2.996 5.379 3.553a.69.69 0 00.375.113.69.69 0 00.374-.113c.878-.557 3.65-2.54 5.351-3.554.106-.063.332.024.246-.053-.198-.178-.493-.28-.81-.28H.831c-.317 0-.612.102-.81.28-.086.077.112-.01.218.053z" fill="#2C2C2C"/><path d="M11.838 1.325a.263.263 0 00-.266.034c-1.824 1.438-4.249 2.83-4.981 3.445-.411.345-.786.345-1.198 0C4.612 4.15 1.9 2.532.41 1.359a.265.265 0 00-.266-.034.232.232 0 00-.145.211v5.839c0 .512.448.929.999.929h9.986c.55 0 .998-.417.998-.929V1.536a.232.232 0 00-.145-.21z" fill="#2C2C2C"/></svg>