<svg width="12" height="9" fill="none" xmlns="http://www.w3.org/2000/svg"><path d="M.239.417c1.703 1.268 4.508 3.746 5.386 4.441A.597.597 0 006.001 5a.596.596 0 00.375-.14c.879-.697 3.656-3.175 5.358-4.443.106-.08.333.03.247-.067A1.082 1.082 0 0011.17 0H.832C.515 0 .22.128.021.35-.065.447.133.338.239.417z" fill="#fff"/><path d="M11.855 1.025a.238.238 0 00-.267.038C9.762 2.706 7.333 4.3 6.6 5c-.412.394-.787.395-1.2 0-.782-.748-3.497-2.596-4.988-3.937a.239.239 0 00-.267-.038.267.267 0 00-.145.24V7.94C0 8.524.448 9 1 9h10c.552 0 1-.476 1-1.061V1.265a.267.267 0 00-.145-.24z" fill="#fff"/></svg>