<svg width="21" height="20" fill="none" xmlns="http://www.w3.org/2000/svg"><path d="M9.38 12l2.994-2L9.38 8v4z" fill="#2D415E"/><path fill-rule="evenodd" clip-rule="evenodd" d="M.4 10c0-5.522 4.468-10 9.978-10s9.98 4.478 9.98 10-4.47 10-9.98 10C4.868 20 .4 15.522.4 10zm15.957 3.016c.257-.978.257-3.006.257-3.006s.01-2.038-.257-3.016a1.564 1.564 0 00-1.1-1.101c-.975-.268-4.879-.268-4.879-.268s-3.903 0-4.88.257A1.596 1.596 0 004.4 6.994C4.143 7.972 4.143 10 4.143 10s0 2.038.257 3.006c.144.535.565.957 1.099 1.101.986.268 4.88.268 4.88.268s3.903 0 4.879-.257a1.564 1.564 0 001.1-1.102z" fill="#2D415E"/></svg>